<svg width="1080" height="1080" xmlns="http://www.w3.org/2000/svg"><g transform="translate(-63.178 -9.004) scale(1.06642)"><circle cx="982.136" cy="95.598" r="66.101" fill="none" stroke="#a51d2d" stroke-width="21.022" stroke-linejoin="round"/><rect width="144.716" height="21.093" x="754.164" y="-667.27" ry="0" transform="matrix(.68388 .7296 -.63481 .77267 0 0)" fill="#a51d2d"/></g><circle cx="540" cy="540" r="504.447" fill="#f6f5f4" transform="translate(19.734 19.734) scale(.96346)"/><g transform="translate(194.334 428.603) scale(.96346)"><circle cx="135.891" cy="-177.506" r="71.46" fill="#c01c28"/><circle cx="135.891" cy="-177.506" r="54.359" fill="#a51d2d"/></g><g transform="translate(281.778 340.251) scale(.96346)"><circle cx="135.891" cy="-177.506" r="71.46" fill="#c01c28"/><circle cx="135.891" cy="-177.506" r="54.359" fill="#a51d2d"/></g><g transform="translate(315.555 465.995) scale(.96346)"><circle cx="135.891" cy="-177.506" r="71.46" fill="#c01c28"/><circle cx="135.891" cy="-177.506" r="54.359" fill="#a51d2d"/></g><g transform="translate(224.464 556.025) scale(.96346)"><circle cx="135.891" cy="-177.506" r="71.46" fill="#c01c28"/><circle cx="135.891" cy="-177.506" r="54.359" fill="#a51d2d"/></g><g transform="translate(403 370.399) scale(.96346)"><circle cx="135.891" cy="-177.506" r="71.46" fill="#c01c28"/><circle cx="135.891" cy="-177.506" r="54.359" fill="#a51d2d"/></g><g transform="translate(518.974 612.736) scale(.96346)"><circle cx="135.891" cy="-177.506" r="71.46" fill="#c01c28"/><circle cx="135.891" cy="-177.506" r="54.359" fill="#a51d2d"/></g><g transform="translate(441.214 717.482) scale(.96346)"><circle cx="135.891" cy="-177.506" r="71.46" fill="#c01c28"/><circle cx="135.891" cy="-177.506" r="54.359" fill="#a51d2d"/></g><g transform="translate(481.2 838.703) scale(.96346)"><circle cx="135.891" cy="-177.506" r="71.46" fill="#c01c28"/><circle cx="135.891" cy="-177.506" r="54.359" fill="#a51d2d"/></g><g transform="translate(293.313 1008.857) scale(.96346)"><circle cx="135.891" cy="-177.506" r="71.46" fill="#c01c28"/><circle cx="135.891" cy="-177.506" r="54.359" fill="#a51d2d"/></g><g transform="translate(616 518.368) scale(.96346)"><circle cx="135.891" cy="-177.506" r="71.46" fill="#c01c28"/><circle cx="135.891" cy="-177.506" r="54.359" fill="#a51d2d"/></g><g transform="translate(642.709 648.634) scale(.96346)"><circle cx="135.891" cy="-177.506" r="71.46" fill="#c01c28"/><circle cx="135.891" cy="-177.506" r="54.359" fill="#a51d2d"/></g><g transform="translate(564.752 747.324) scale(.96346)"><circle cx="135.891" cy="-177.506" r="71.46" fill="#c01c28"/><circle cx="135.891" cy="-177.506" r="54.359" fill="#a51d2d"/></g><g transform="translate(685.609 769.855) scale(.96346)"><circle cx="135.891" cy="-177.506" r="71.46" fill="#c01c28"/><circle cx="135.891" cy="-177.506" r="54.359" fill="#a51d2d"/></g><g transform="translate(806.83 822.228) scale(.96346)"><circle cx="135.891" cy="-177.506" r="71.46" fill="#c01c28"/><circle cx="135.891" cy="-177.506" r="54.359" fill="#a51d2d"/></g><g transform="translate(334.15 634.628) scale(.96346)"><circle cx="135.891" cy="-177.506" r="71.46" fill="#c01c28"/><circle cx="135.891" cy="-177.506" r="54.359" fill="#a51d2d"/></g><g transform="translate(388.841 927.549) scale(.96346)"><circle cx="135.891" cy="-177.506" r="71.46" fill="#c01c28"/><circle cx="135.891" cy="-177.506" r="54.359" fill="#a51d2d"/></g><path d="M275.552 132.408a486.015 486.015 0 0 0-103.424 90.081 68.849 68.849 0 0 0 48.385 20.114 68.849 68.849 0 0 0 68.85-68.847 68.849 68.849 0 0 0-13.811-41.348z" fill="#c01c28"/><path d="M262.364 142.28a486.015 486.015 0 0 0-78.71 68.494 52.374 52.374 0 0 0 36.86 15.355 52.374 52.374 0 0 0 52.373-52.373 52.374 52.374 0 0 0-10.523-31.477z" fill="#a51d2d"/><path d="M279.065 945.937a486.015 486.015 0 0 0 101.313 49.79 68.849 68.849 0 0 0 35.577-60.076 68.849 68.849 0 0 0-68.848-68.849 68.849 68.849 0 0 0-68.849 68.85 68.849 68.849 0 0 0 .807 10.285z" fill="#c01c28"/><path d="M302.259 962.523a486.015 486.015 0 0 0 50.627 25.088 52.374 52.374 0 0 0 46.594-51.96 52.374 52.374 0 0 0-52.373-52.374 52.374 52.374 0 0 0-52.374 52.374 52.374 52.374 0 0 0 7.526 26.871z" fill="#a51d2d"/><g transform="translate(19.734 19.734) scale(.96346)"><path d="M419.57 1028.732a504.447 504.447 0 0 0 93.743 13.807 71.46 71.46 0 0 0 32.353-59.762 71.46 71.46 0 0 0-71.46-71.46 71.46 71.46 0 0 0-71.46 71.46 71.46 71.46 0 0 0 16.824 45.955z" fill="#c01c28"/><circle cx="474.206" cy="982.777" r="54.359" fill="#a51d2d"/></g><circle cx="540" cy="540" r="504.447" fill="none" stroke="#241f31" stroke-width="9.342" transform="translate(19.734 19.734) scale(.96346)"/></svg>