<svg xmlns="http://www.w3.org/2000/svg" width="1080" height="1080"><text xml:space="preserve" x="539.467" y="1027.277" fill="#241f31" stroke-linejoin="round" stroke-width="20" font-family="Cantarell" font-size="120" font-weight="700" style="-inkscape-font-specification:&quot;Cantarell Bold&quot;;text-align:center" text-anchor="middle"><tspan x="539.467" y="1027.277">Type AB</tspan></text><circle cx="540" cy="540" r="504.447" fill="#f6f5f4" transform="translate(65.102 -9.897) scale(.87944)"/><g transform="translate(239.515 397.45) scale(.87944)"><circle cx="135.891" cy="-177.506" r="71.46" fill="#c01c28"/><circle cx="135.891" cy="-177.506" r="54.359" fill="#a51d2d"/></g><g transform="translate(397.972 363.318) scale(.87944)"><circle cx="135.891" cy="-177.506" r="71.46" fill="#c01c28"/><circle cx="135.891" cy="-177.506" r="54.359" fill="#a51d2d"/></g><g transform="translate(556.428 349.644) scale(.87944)"><circle cx="135.891" cy="-177.506" r="71.46" fill="#c01c28"/><circle cx="135.891" cy="-177.506" r="54.359" fill="#a51d2d"/></g><g transform="translate(81.059 445.255) scale(.87944)"><circle cx="135.891" cy="-177.506" r="71.46" fill="#c01c28"/><circle cx="135.891" cy="-177.506" r="54.359" fill="#a51d2d"/></g><g transform="translate(211.175 557.27) scale(.87944)"><circle cx="135.891" cy="-177.506" r="71.46" fill="#c01c28"/><circle cx="135.891" cy="-177.506" r="54.359" fill="#a51d2d"/></g><g transform="translate(362.63 517.72) scale(.87944)"><circle cx="135.891" cy="-177.506" r="71.46" fill="#c01c28"/><circle cx="135.891" cy="-177.506" r="54.359" fill="#a51d2d"/></g><g transform="translate(520.807 502.682) scale(.87944)"><circle cx="135.891" cy="-177.506" r="71.46" fill="#c01c28"/><circle cx="135.891" cy="-177.506" r="54.359" fill="#a51d2d"/></g><g transform="translate(674.475 460.294) scale(.87944)"><circle cx="135.891" cy="-177.506" r="71.46" fill="#c01c28"/><circle cx="135.891" cy="-177.506" r="54.359" fill="#a51d2d"/></g><g transform="translate(166.52 717.09) scale(.87944)"><circle cx="135.891" cy="-177.506" r="71.46" fill="#c01c28"/><circle cx="135.891" cy="-177.506" r="54.359" fill="#a51d2d"/></g><g transform="translate(463.13 642.045) scale(.87944)"><circle cx="135.891" cy="-177.506" r="71.46" fill="#c01c28"/><circle cx="135.891" cy="-177.506" r="54.359" fill="#a51d2d"/></g><g transform="translate(422.9 808.053) scale(.87944)"><circle cx="135.891" cy="-177.506" r="71.46" fill="#c01c28"/><circle cx="135.891" cy="-177.506" r="54.359" fill="#a51d2d"/></g><g transform="translate(520.807 934.447) scale(.87944)"><circle cx="135.891" cy="-177.506" r="71.46" fill="#c01c28"/><circle cx="135.891" cy="-177.506" r="54.359" fill="#a51d2d"/></g><g transform="translate(360.056 958.863) scale(.87944)"><circle cx="135.891" cy="-177.506" r="71.46" fill="#c01c28"/><circle cx="135.891" cy="-177.506" r="54.359" fill="#a51d2d"/></g><g transform="translate(626.473 620.115) scale(.87944)"><circle cx="135.891" cy="-177.506" r="71.46" fill="#c01c28"/><circle cx="135.891" cy="-177.506" r="54.359" fill="#a51d2d"/></g><g transform="translate(771.659 579.2) scale(.87944)"><circle cx="135.891" cy="-177.506" r="71.46" fill="#c01c28"/><circle cx="135.891" cy="-177.506" r="54.359" fill="#a51d2d"/></g><g transform="translate(578.667 767.734) scale(.87944)"><circle cx="135.891" cy="-177.506" r="71.46" fill="#c01c28"/><circle cx="135.891" cy="-177.506" r="54.359" fill="#a51d2d"/></g><g transform="translate(734.433 747.277) scale(.87944)"><circle cx="135.891" cy="-177.506" r="71.46" fill="#c01c28"/><circle cx="135.891" cy="-177.506" r="54.359" fill="#a51d2d"/></g><g transform="translate(59.72 585.338) scale(.87944)"><circle cx="135.891" cy="-177.506" r="71.46" fill="#c01c28"/><circle cx="135.891" cy="-177.506" r="54.359" fill="#a51d2d"/></g><g transform="translate(314.824 687.161) scale(.87944)"><circle cx="135.891" cy="-177.506" r="71.46" fill="#c01c28"/><circle cx="135.891" cy="-177.506" r="54.359" fill="#a51d2d"/></g><g transform="translate(251.98 839.359) scale(.87944)"><circle cx="135.891" cy="-177.506" r="71.46" fill="#c01c28"/><circle cx="135.891" cy="-177.506" r="54.359" fill="#a51d2d"/></g><path fill="#c01c28" d="M963.202 332.209a443.631 443.631 0 0 0-51.226-108.766 62.845 62.845 0 0 0-20.81 46.614 62.845 62.845 0 0 0 62.845 62.844 62.845 62.845 0 0 0 9.19-.692z"/><path fill="#a51d2d" d="M958.361 317.55a443.631 443.631 0 0 0-38.16-81.118 47.806 47.806 0 0 0-13.996 33.625 47.806 47.806 0 0 0 47.806 47.806 47.806 47.806 0 0 0 4.35-.313z"/><path fill="#c01c28" d="M966.022 588.329a443.631 443.631 0 0 0 16.033-101.285 62.845 62.845 0 0 0-35.192 56.322 62.845 62.845 0 0 0 19.16 44.963z"/><path fill="#a51d2d" d="M970.026 569.926a443.631 443.631 0 0 0 10.71-64.436 47.806 47.806 0 0 0-18.835 37.876 47.806 47.806 0 0 0 8.125 26.56z"/><path fill="#c01c28" d="M888.633 190.87a443.631 443.631 0 0 0-87.753-84.585 62.845 62.845 0 0 0-29.333 53.12 62.845 62.845 0 0 0 62.846 62.846 62.845 62.845 0 0 0 54.24-31.381z"/><path fill="#a51d2d" d="M878.284 178.176a443.631 443.631 0 0 0-64.326-61.942 47.806 47.806 0 0 0-27.373 43.172 47.806 47.806 0 0 0 47.808 47.806 47.806 47.806 0 0 0 43.891-29.036z"/><path fill="#c01c28" d="M772.973 87.59a443.631 443.631 0 0 0-111.16-49.046 62.845 62.845 0 0 0-.916 10.212 62.845 62.845 0 0 0 62.844 62.844 62.845 62.845 0 0 0 49.232-24.01Z"/><path fill="#a51d2d" d="M759.987 79.906a443.631 443.631 0 0 0-83.638-36.932 47.806 47.806 0 0 0-.414 5.782 47.806 47.806 0 0 0 47.806 47.806 47.806 47.806 0 0 0 36.246-16.656z"/><path fill="#c01c28" d="M613.572 27.642A443.631 443.631 0 0 0 540 21.37a443.631 443.631 0 0 0-18.185 1.3 62.845 62.845 0 0 0-19.375 45.178 62.845 62.845 0 0 0 62.846 62.845 62.845 62.845 0 0 0 62.844-62.845 62.845 62.845 0 0 0-14.558-40.206Z"/><path fill="#a51d2d" d="M583.041 23.474a443.631 443.631 0 0 0-29.904-1.782 47.806 47.806 0 0 0-35.657 46.156 47.806 47.806 0 0 0 47.806 47.807 47.806 47.806 0 0 0 47.806-47.807 47.806 47.806 0 0 0-30.05-44.374Z"/><path fill="#c01c28" d="M426.403 36.863a443.631 443.631 0 0 0-72.228 25.433 62.845 62.845 0 0 0-10.19 34.266 62.845 62.845 0 0 0 62.843 62.844 62.845 62.845 0 0 0 62.846-62.844 62.845 62.845 0 0 0-43.271-59.7z"/><path fill="#a51d2d" d="M406.828 48.756a47.806 47.806 0 0 0-47.806 47.806 47.806 47.806 0 0 0 47.806 47.806 47.806 47.806 0 0 0 47.806-47.806 47.806 47.806 0 0 0-47.806-47.806z"/><path fill="#c01c28" d="M298.61 92.951a443.631 443.631 0 0 0-94.404 82.226 62.845 62.845 0 0 0 44.167 18.36 62.845 62.845 0 0 0 62.844-62.844 62.845 62.845 0 0 0-12.606-37.742z"/><path fill="#a51d2d" d="M286.573 101.962a443.631 443.631 0 0 0-71.846 62.521 47.806 47.806 0 0 0 33.646 14.016 47.806 47.806 0 0 0 47.805-47.806 47.806 47.806 0 0 0-9.605-28.73z"/><path fill="#c01c28" d="M101.911 532.857a443.631 443.631 0 0 0 33.71 114.19 62.845 62.845 0 0 0 2.1.15 62.845 62.845 0 0 0 62.846-62.844 62.845 62.845 0 0 0-62.846-62.844 62.845 62.845 0 0 0-35.81 11.348z"/><path fill="#a51d2d" d="M105.462 549.177a443.631 443.631 0 0 0 24.334 82.251 47.806 47.806 0 0 0 7.925.73 47.806 47.806 0 0 0 47.808-47.805 47.806 47.806 0 0 0-47.808-47.806 47.806 47.806 0 0 0-32.26 12.63z"/><path fill="#c01c28" d="M158.249 689.197a443.631 443.631 0 0 0 67.66 87.504 62.845 62.845 0 0 0 52.54-61.91 62.845 62.845 0 0 0-62.844-62.843 62.845 62.845 0 0 0-57.356 37.249z"/><path fill="#a51d2d" d="M168.48 707.096a443.631 443.631 0 0 0 43.033 55.21 47.806 47.806 0 0 0 4.092.291 47.806 47.806 0 0 0 47.806-47.806 47.806 47.806 0 0 0-47.806-47.805 47.806 47.806 0 0 0-47.126 40.11z"/><path fill="#c01c28" d="M278.124 821.716A443.631 443.631 0 0 0 388.68 880.84a62.845 62.845 0 0 0 7.998-30.353 62.845 62.845 0 0 0-62.844-62.844 62.845 62.845 0 0 0-55.709 34.072z"/><path fill="#a51d2d" d="M290.278 830.814a443.631 443.631 0 0 0 84.203 44.73 47.806 47.806 0 0 0 7.158-25.056 47.806 47.806 0 0 0-47.806-47.806 47.806 47.806 0 0 0-43.555 28.132z"/><g transform="translate(65.102 -9.897) scale(.87944)"><path fill="#c01c28" d="M837.24 946.016a504.447 504.447 0 0 0 70.406-62.084 71.46 71.46 0 0 0 .668-9.348 71.46 71.46 0 0 0-71.459-71.459 71.46 71.46 0 0 0-71.46 71.459 71.46 71.46 0 0 0 71.46 71.459 71.46 71.46 0 0 0 .385-.027z"/><circle cx="836.855" cy="874.584" r="54.359" fill="#a51d2d"/></g><circle cx="540" cy="540" r="504.447" fill="none" stroke="#241f31" stroke-width="9.342" transform="translate(65.102 -9.897) scale(.87944)"/></svg>