<svg width="1080" height="1080" xmlns="http://www.w3.org/2000/svg"><circle cx="536.157" cy="630.043" r="598.277" transform="translate(104.092 29.523) scale(.81195)" fill="#f6f5f4"/><g transform="translate(210.397 467.119) scale(.96298)"><circle cx="135.891" cy="-177.506" r="71.46" fill="#c01c28"/><circle cx="135.891" cy="-177.506" r="54.359" fill="#a51d2d"/></g><g transform="translate(383.905 429.745) scale(.96298)"><circle cx="135.891" cy="-177.506" r="71.46" fill="#c01c28"/><circle cx="135.891" cy="-177.506" r="54.359" fill="#a51d2d"/></g><g transform="translate(557.413 414.772) scale(.96298)"><circle cx="135.891" cy="-177.506" r="71.46" fill="#c01c28"/><circle cx="135.891" cy="-177.506" r="54.359" fill="#a51d2d"/></g><g transform="translate(36.89 519.466) scale(.96298)"><circle cx="135.891" cy="-177.506" r="71.46" fill="#c01c28"/><circle cx="135.891" cy="-177.506" r="54.359" fill="#a51d2d"/></g><g transform="translate(179.366 642.12) scale(.96298)"><circle cx="135.891" cy="-177.506" r="71.46" fill="#c01c28"/><circle cx="135.891" cy="-177.506" r="54.359" fill="#a51d2d"/></g><g transform="translate(345.207 598.814) scale(.96298)"><circle cx="135.891" cy="-177.506" r="71.46" fill="#c01c28"/><circle cx="135.891" cy="-177.506" r="54.359" fill="#a51d2d"/></g><g transform="translate(518.409 582.347) scale(.96298)"><circle cx="135.891" cy="-177.506" r="71.46" fill="#c01c28"/><circle cx="135.891" cy="-177.506" r="54.359" fill="#a51d2d"/></g><g transform="translate(686.673 535.933) scale(.96298)"><circle cx="135.891" cy="-177.506" r="71.46" fill="#c01c28"/><circle cx="135.891" cy="-177.506" r="54.359" fill="#a51d2d"/></g><g transform="translate(130.468 817.122) scale(.96298)"><circle cx="135.891" cy="-177.506" r="71.46" fill="#c01c28"/><circle cx="135.891" cy="-177.506" r="54.359" fill="#a51d2d"/></g><g transform="translate(455.252 734.948) scale(.96298)"><circle cx="135.891" cy="-177.506" r="71.46" fill="#c01c28"/><circle cx="135.891" cy="-177.506" r="54.359" fill="#a51d2d"/></g><g transform="translate(411.202 916.724) scale(.96298)"><circle cx="135.891" cy="-177.506" r="71.46" fill="#c01c28"/><circle cx="135.891" cy="-177.506" r="54.359" fill="#a51d2d"/></g><g transform="translate(518.409 1055.125) scale(.96298)"><circle cx="135.891" cy="-177.506" r="71.46" fill="#c01c28"/><circle cx="135.891" cy="-177.506" r="54.359" fill="#a51d2d"/></g><g transform="translate(342.388 1081.86) scale(.96298)"><circle cx="135.891" cy="-177.506" r="71.46" fill="#c01c28"/><circle cx="135.891" cy="-177.506" r="54.359" fill="#a51d2d"/></g><g transform="translate(634.111 710.934) scale(.96298)"><circle cx="135.891" cy="-177.506" r="71.46" fill="#c01c28"/><circle cx="135.891" cy="-177.506" r="54.359" fill="#a51d2d"/></g><g transform="translate(793.089 666.134) scale(.96298)"><circle cx="135.891" cy="-177.506" r="71.46" fill="#c01c28"/><circle cx="135.891" cy="-177.506" r="54.359" fill="#a51d2d"/></g><g transform="translate(581.764 872.576) scale(.96298)"><circle cx="135.891" cy="-177.506" r="71.46" fill="#c01c28"/><circle cx="135.891" cy="-177.506" r="54.359" fill="#a51d2d"/></g><g transform="translate(752.327 850.176) scale(.96298)"><circle cx="135.891" cy="-177.506" r="71.46" fill="#c01c28"/><circle cx="135.891" cy="-177.506" r="54.359" fill="#a51d2d"/></g><g transform="translate(13.525 672.854) scale(.96298)"><circle cx="135.891" cy="-177.506" r="71.46" fill="#c01c28"/><circle cx="135.891" cy="-177.506" r="54.359" fill="#a51d2d"/></g><g transform="translate(292.86 784.35) scale(.96298)"><circle cx="135.891" cy="-177.506" r="71.46" fill="#c01c28"/><circle cx="135.891" cy="-177.506" r="54.359" fill="#a51d2d"/></g><g transform="translate(224.046 951.004) scale(.96298)"><circle cx="135.891" cy="-177.506" r="71.46" fill="#c01c28"/><circle cx="135.891" cy="-177.506" r="54.359" fill="#a51d2d"/></g><path d="M1002.829 395.682a485.772 485.772 0 0 0-56.092-119.097 68.815 68.815 0 0 0-22.786 51.041 68.815 68.815 0 0 0 68.813 68.814 68.815 68.815 0 0 0 10.064-.758z" fill="#c01c28"/><path d="M997.528 379.631a485.772 485.772 0 0 0-41.786-88.823 52.348 52.348 0 0 0-15.325 36.818 52.348 52.348 0 0 0 52.347 52.348 52.348 52.348 0 0 0 4.764-.343z" fill="#a51d2d"/><path d="M1005.917 676.13a485.772 485.772 0 0 0 17.555-110.906 68.815 68.815 0 0 0-38.534 61.672 68.815 68.815 0 0 0 20.979 49.235z" fill="#c01c28"/><path d="M1010.301 655.98a485.772 485.772 0 0 0 11.726-70.557 52.348 52.348 0 0 0-20.623 41.473 52.348 52.348 0 0 0 8.897 29.084z" fill="#a51d2d"/><path d="M921.177 240.918a485.772 485.772 0 0 0-96.09-92.62 68.815 68.815 0 0 0-32.119 58.166 68.815 68.815 0 0 0 68.816 68.815 68.815 68.815 0 0 0 59.393-34.362z" fill="#c01c28"/><path d="M909.844 227.017a485.772 485.772 0 0 0-70.436-67.825 52.348 52.348 0 0 0-29.973 47.272 52.348 52.348 0 0 0 52.349 52.348 52.348 52.348 0 0 0 48.06-31.795z" fill="#a51d2d"/><path d="M794.53 127.827a485.772 485.772 0 0 0-121.72-53.705 68.815 68.815 0 0 0-1.002 11.181 68.815 68.815 0 0 0 68.814 68.815 68.815 68.815 0 0 0 53.907-26.29Z" fill="#c01c28"/><path d="M780.31 119.412a485.772 485.772 0 0 0-91.583-40.439 52.348 52.348 0 0 0-.453 6.331 52.348 52.348 0 0 0 52.347 52.348 52.348 52.348 0 0 0 39.689-18.24z" fill="#a51d2d"/><path d="M619.987 62.185a485.772 485.772 0 0 0-80.56-6.87 485.772 485.772 0 0 0-19.913 1.424 68.815 68.815 0 0 0-21.216 49.47 68.815 68.815 0 0 0 68.815 68.815 68.815 68.815 0 0 0 68.814-68.815 68.815 68.815 0 0 0-15.94-44.024Z" fill="#c01c28"/><path d="M586.555 57.62a485.772 485.772 0 0 0-32.745-1.95 52.348 52.348 0 0 0-39.043 50.538 52.348 52.348 0 0 0 52.347 52.35 52.348 52.348 0 0 0 52.347-52.35 52.348 52.348 0 0 0-32.905-48.589Z" fill="#a51d2d"/><path d="M415.038 72.28a485.772 485.772 0 0 0-79.089 27.85 68.815 68.815 0 0 0-11.159 37.52 68.815 68.815 0 0 0 68.815 68.814 68.815 68.815 0 0 0 68.815-68.814 68.815 68.815 0 0 0-47.382-65.37z" fill="#c01c28"/><path d="M393.604 85.303a52.348 52.348 0 0 0-52.348 52.348 52.348 52.348 0 0 0 52.348 52.347 52.348 52.348 0 0 0 52.348-52.347 52.348 52.348 0 0 0-52.348-52.348z" fill="#a51d2d"/><path d="M275.107 133.697a485.772 485.772 0 0 0-103.372 90.036 68.815 68.815 0 0 0 48.361 20.104 68.815 68.815 0 0 0 68.815-68.813 68.815 68.815 0 0 0-13.804-41.327z" fill="#c01c28"/><path d="M261.926 143.563a485.772 485.772 0 0 0-78.67 68.46 52.348 52.348 0 0 0 36.841 15.348 52.348 52.348 0 0 0 52.347-52.347 52.348 52.348 0 0 0-10.518-31.46z" fill="#a51d2d"/><path d="M59.723 615.39a485.772 485.772 0 0 0 36.91 125.037 68.815 68.815 0 0 0 2.302.164 68.815 68.815 0 0 0 68.815-68.815 68.815 68.815 0 0 0-68.815-68.812 68.815 68.815 0 0 0-39.212 12.426z" fill="#c01c28"/><path d="M63.611 633.26a485.772 485.772 0 0 0 26.646 90.064 52.348 52.348 0 0 0 8.677.8 52.348 52.348 0 0 0 52.35-52.348 52.348 52.348 0 0 0-52.35-52.346 52.348 52.348 0 0 0-35.323 13.829z" fill="#a51d2d"/><path d="M121.412 786.58a485.772 485.772 0 0 0 74.088 95.817 68.815 68.815 0 0 0 57.53-67.79 68.815 68.815 0 0 0-68.814-68.814 68.815 68.815 0 0 0-62.804 40.788z" fill="#c01c28"/><path d="M132.614 806.18a485.772 485.772 0 0 0 47.122 60.454 52.348 52.348 0 0 0 4.48.32 52.348 52.348 0 0 0 52.348-52.348 52.348 52.348 0 0 0-52.347-52.347 52.348 52.348 0 0 0-51.603 43.921z" fill="#a51d2d"/><path d="M252.675 931.687a485.772 485.772 0 0 0 121.056 64.741 68.815 68.815 0 0 0 8.757-33.235 68.815 68.815 0 0 0-68.813-68.813 68.815 68.815 0 0 0-61 37.307z" fill="#c01c28"/><path d="M265.983 941.65a485.772 485.772 0 0 0 92.202 48.978 52.348 52.348 0 0 0 7.837-27.435 52.348 52.348 0 0 0-52.347-52.347 52.348 52.348 0 0 0-47.692 30.804z" fill="#a51d2d"/><g transform="translate(19.417 21.079) scale(.96298)"><path d="M837.24 946.016a504.447 504.447 0 0 0 70.406-62.084 71.46 71.46 0 0 0 .668-9.348 71.46 71.46 0 0 0-71.459-71.459 71.46 71.46 0 0 0-71.46 71.459 71.46 71.46 0 0 0 71.46 71.459 71.46 71.46 0 0 0 .385-.027z" fill="#c01c28"/><circle cx="836.855" cy="874.584" r="54.359" fill="#a51d2d"/></g><circle cx="536.157" cy="630.043" r="598.277" fill="none" stroke="#241f31" stroke-width="11.079" transform="translate(104.092 29.523) scale(.81195)"/></svg>