<svg width="1080" height="1080" xmlns="http://www.w3.org/2000/svg"><text xml:space="preserve" style="-inkscape-font-specification:'Cantarell Bold';text-align:center" x="539.467" y="1031.277" font-weight="700" font-size="120" font-family="Cantarell" text-anchor="middle" fill="#241f31" stroke-width="20" stroke-linejoin="round"><tspan style="-inkscape-font-specification:'sans-serif Bold'" x="539.467" y="1031.277" font-family="sans-serif">Nhóm AB</tspan></text><circle cx="540" cy="540" r="504.447" fill="#f6f5f4" transform="translate(65.102 -9.897) scale(.87944)"/><g transform="translate(239.515 397.45) scale(.87944)"><circle cx="135.891" cy="-177.506" r="71.46" fill="#c01c28"/><circle cx="135.891" cy="-177.506" r="54.359" fill="#a51d2d"/></g><g transform="translate(397.972 363.318) scale(.87944)"><circle cx="135.891" cy="-177.506" r="71.46" fill="#c01c28"/><circle cx="135.891" cy="-177.506" r="54.359" fill="#a51d2d"/></g><g transform="translate(556.428 349.644) scale(.87944)"><circle cx="135.891" cy="-177.506" r="71.46" fill="#c01c28"/><circle cx="135.891" cy="-177.506" r="54.359" fill="#a51d2d"/></g><g transform="translate(81.059 445.255) scale(.87944)"><circle cx="135.891" cy="-177.506" r="71.46" fill="#c01c28"/><circle cx="135.891" cy="-177.506" r="54.359" fill="#a51d2d"/></g><g transform="translate(211.175 557.27) scale(.87944)"><circle cx="135.891" cy="-177.506" r="71.46" fill="#c01c28"/><circle cx="135.891" cy="-177.506" r="54.359" fill="#a51d2d"/></g><g transform="translate(362.63 517.72) scale(.87944)"><circle cx="135.891" cy="-177.506" r="71.46" fill="#c01c28"/><circle cx="135.891" cy="-177.506" r="54.359" fill="#a51d2d"/></g><g transform="translate(520.807 502.682) scale(.87944)"><circle cx="135.891" cy="-177.506" r="71.46" fill="#c01c28"/><circle cx="135.891" cy="-177.506" r="54.359" fill="#a51d2d"/></g><g transform="translate(674.475 460.294) scale(.87944)"><circle cx="135.891" cy="-177.506" r="71.46" fill="#c01c28"/><circle cx="135.891" cy="-177.506" r="54.359" fill="#a51d2d"/></g><g transform="translate(166.52 717.09) scale(.87944)"><circle cx="135.891" cy="-177.506" r="71.46" fill="#c01c28"/><circle cx="135.891" cy="-177.506" r="54.359" fill="#a51d2d"/></g><g transform="translate(463.13 642.045) scale(.87944)"><circle cx="135.891" cy="-177.506" r="71.46" fill="#c01c28"/><circle cx="135.891" cy="-177.506" r="54.359" fill="#a51d2d"/></g><g transform="translate(422.9 808.053) scale(.87944)"><circle cx="135.891" cy="-177.506" r="71.46" fill="#c01c28"/><circle cx="135.891" cy="-177.506" r="54.359" fill="#a51d2d"/></g><g transform="translate(520.807 934.447) scale(.87944)"><circle cx="135.891" cy="-177.506" r="71.46" fill="#c01c28"/><circle cx="135.891" cy="-177.506" r="54.359" fill="#a51d2d"/></g><g transform="translate(360.056 958.863) scale(.87944)"><circle cx="135.891" cy="-177.506" r="71.46" fill="#c01c28"/><circle cx="135.891" cy="-177.506" r="54.359" fill="#a51d2d"/></g><g transform="translate(626.473 620.115) scale(.87944)"><circle cx="135.891" cy="-177.506" r="71.46" fill="#c01c28"/><circle cx="135.891" cy="-177.506" r="54.359" fill="#a51d2d"/></g><g transform="translate(771.659 579.2) scale(.87944)"><circle cx="135.891" cy="-177.506" r="71.46" fill="#c01c28"/><circle cx="135.891" cy="-177.506" r="54.359" fill="#a51d2d"/></g><g transform="translate(578.667 767.734) scale(.87944)"><circle cx="135.891" cy="-177.506" r="71.46" fill="#c01c28"/><circle cx="135.891" cy="-177.506" r="54.359" fill="#a51d2d"/></g><g transform="translate(734.433 747.277) scale(.87944)"><circle cx="135.891" cy="-177.506" r="71.46" fill="#c01c28"/><circle cx="135.891" cy="-177.506" r="54.359" fill="#a51d2d"/></g><g transform="translate(59.72 585.338) scale(.87944)"><circle cx="135.891" cy="-177.506" r="71.46" fill="#c01c28"/><circle cx="135.891" cy="-177.506" r="54.359" fill="#a51d2d"/></g><g transform="translate(314.824 687.161) scale(.87944)"><circle cx="135.891" cy="-177.506" r="71.46" fill="#c01c28"/><circle cx="135.891" cy="-177.506" r="54.359" fill="#a51d2d"/></g><g transform="translate(251.98 839.359) scale(.87944)"><circle cx="135.891" cy="-177.506" r="71.46" fill="#c01c28"/><circle cx="135.891" cy="-177.506" r="54.359" fill="#a51d2d"/></g><path d="M963.201 332.209a443.63 443.63 0 0 0-51.226-108.766 62.845 62.845 0 0 0-20.809 46.614A62.845 62.845 0 0 0 954.01 332.9a62.845 62.845 0 0 0 9.19-.692z" fill="#c01c28"/><path d="M958.36 317.55a443.63 443.63 0 0 0-38.16-81.118 47.806 47.806 0 0 0-13.996 33.625 47.806 47.806 0 0 0 47.806 47.806 47.806 47.806 0 0 0 4.35-.313z" fill="#a51d2d"/><path d="M966.021 588.328a443.63 443.63 0 0 0 16.033-101.285 62.845 62.845 0 0 0-35.191 56.322 62.845 62.845 0 0 0 19.158 44.963z" fill="#c01c28"/><path d="M970.026 569.926a443.63 443.63 0 0 0 10.708-64.437 47.806 47.806 0 0 0-18.834 37.876 47.806 47.806 0 0 0 8.126 26.56z" fill="#a51d2d"/><path d="M888.632 190.87a443.63 443.63 0 0 0-87.753-84.584 62.845 62.845 0 0 0-29.333 53.12 62.845 62.845 0 0 0 62.846 62.845 62.845 62.845 0 0 0 54.24-31.382z" fill="#c01c28"/><path d="M878.283 178.176a443.63 443.63 0 0 0-64.326-61.942 47.806 47.806 0 0 0-27.372 43.172 47.806 47.806 0 0 0 47.807 47.806 47.806 47.806 0 0 0 43.891-29.036z" fill="#a51d2d"/><path d="M772.972 87.59a443.63 443.63 0 0 0-111.16-49.046 62.845 62.845 0 0 0-.915 10.211 62.845 62.845 0 0 0 62.844 62.845 62.845 62.845 0 0 0 49.231-24.01Z" fill="#c01c28"/><path d="M759.987 79.905a443.63 443.63 0 0 0-83.639-36.93 47.806 47.806 0 0 0-.413 5.781 47.806 47.806 0 0 0 47.805 47.807 47.806 47.806 0 0 0 36.246-16.657z" fill="#a51d2d"/><path d="M613.572 27.643A443.63 443.63 0 0 0 540 21.37a443.63 443.63 0 0 0-18.185 1.3 62.845 62.845 0 0 0-19.375 45.177 62.845 62.845 0 0 0 62.844 62.846 62.845 62.845 0 0 0 62.845-62.845 62.845 62.845 0 0 0-14.557-40.205Z" fill="#c01c28"/><path d="M583.04 23.473a443.63 443.63 0 0 0-29.904-1.78 47.806 47.806 0 0 0-35.656 46.154 47.806 47.806 0 0 0 47.805 47.808 47.806 47.806 0 0 0 47.807-47.808 47.806 47.806 0 0 0-30.05-44.374Z" fill="#a51d2d"/><path d="M426.402 36.863a443.63 443.63 0 0 0-72.227 25.433 62.845 62.845 0 0 0-10.191 34.266 62.845 62.845 0 0 0 62.845 62.844 62.845 62.845 0 0 0 62.844-62.845 62.845 62.845 0 0 0-43.27-59.698z" fill="#c01c28"/><path d="M406.828 48.755a47.806 47.806 0 0 0-47.807 47.807 47.806 47.806 0 0 0 47.807 47.806 47.806 47.806 0 0 0 47.806-47.806 47.806 47.806 0 0 0-47.806-47.807z" fill="#a51d2d"/><path d="M298.61 92.95a443.63 443.63 0 0 0-94.403 82.227 62.845 62.845 0 0 0 44.165 18.36 62.845 62.845 0 0 0 62.845-62.844A62.845 62.845 0 0 0 298.61 92.95z" fill="#c01c28"/><path d="M286.573 101.962a443.63 443.63 0 0 0-71.846 62.52 47.806 47.806 0 0 0 33.646 14.017 47.806 47.806 0 0 0 47.805-47.806 47.806 47.806 0 0 0-9.605-28.731z" fill="#a51d2d"/><path d="M101.911 532.856a443.63 443.63 0 0 0 33.709 114.19 62.845 62.845 0 0 0 2.102.15 62.845 62.845 0 0 0 62.845-62.845 62.845 62.845 0 0 0-62.845-62.843 62.845 62.845 0 0 0-35.811 11.348z" fill="#c01c28"/><path d="M105.462 549.176a443.63 443.63 0 0 0 24.334 82.252 47.806 47.806 0 0 0 7.925.73 47.806 47.806 0 0 0 47.808-47.807 47.806 47.806 0 0 0-47.808-47.804 47.806 47.806 0 0 0-32.259 12.628z" fill="#a51d2d"/><path d="M158.249 689.196a443.63 443.63 0 0 0 67.66 87.505 62.845 62.845 0 0 0 52.54-61.91 62.845 62.845 0 0 0-62.845-62.844 62.845 62.845 0 0 0-57.355 37.25z" fill="#c01c28"/><path d="M168.48 707.095a443.63 443.63 0 0 0 43.033 55.21 47.806 47.806 0 0 0 4.092.292 47.806 47.806 0 0 0 47.806-47.806 47.806 47.806 0 0 0-47.806-47.807 47.806 47.806 0 0 0-47.126 40.111z" fill="#a51d2d"/><path d="M278.124 821.715a443.63 443.63 0 0 0 110.555 59.124 62.845 62.845 0 0 0 7.997-30.352 62.845 62.845 0 0 0-62.844-62.844 62.845 62.845 0 0 0-55.708 34.072z" fill="#c01c28"/><path d="M290.278 830.812a443.63 443.63 0 0 0 84.203 44.73 47.806 47.806 0 0 0 7.158-25.055 47.806 47.806 0 0 0-47.807-47.806 47.806 47.806 0 0 0-43.554 28.132z" fill="#a51d2d"/><g transform="translate(65.102 -9.897) scale(.87944)"><path d="M837.24 946.016a504.447 504.447 0 0 0 70.406-62.084 71.46 71.46 0 0 0 .668-9.348 71.46 71.46 0 0 0-71.459-71.459 71.46 71.46 0 0 0-71.46 71.459 71.46 71.46 0 0 0 71.46 71.459 71.46 71.46 0 0 0 .385-.027z" fill="#c01c28"/><circle cx="836.855" cy="874.584" r="54.359" fill="#a51d2d"/></g><circle cx="540" cy="540" r="504.447" fill="none" stroke="#241f31" stroke-width="9.342" transform="translate(65.102 -9.897) scale(.87944)"/></svg>