<svg width="32" height="32" xmlns="http://www.w3.org/2000/svg"><path d="m25.687 10.294-3.981-3.981a1.799 1.799 0 0 0-2.544 0L4.858 20.617a1.799 1.799 0 0 0 0 2.544l3.981 3.981a1.799 1.799 0 0 0 2.544 0l14.304-14.304a1.799 1.799 0 0 0 0-2.544" fill="none"/><path d="M30.566 7.96 24.04 1.434l1.44-1.438 6.526 6.525-1.44 1.439" fill="#241f31"/><path d="m25.468 10.075.326-1.473 2.707-2.707L26.105 3.5l-2.707 2.707-1.473.326 3.543 3.543" fill="#241f31"/><path d="m18.537 19.99-7.153 7.153a1.8 1.8 0 0 1-2.544 0L4.858 23.16a1.798 1.798 0 0 1 0-2.544l7.153-7.152 6.526 6.525" fill="#a51d2d" fill-opacity=".001"/><path d="m25.072 12.222-.763.763-2.647-2.646-.615.615 2.646 2.647-.979.979-1.015-1.015-.616.615 1.015 1.016-.83.83-2.646-2.647-.616.616 2.647 2.646-.976.976-1.015-1.016-.616.616 1.016 1.015-.834.834-2.646-2.647-.616.616 2.646 2.647-.971.971-1.016-1.015-.615.616 1.015 1.015-.971.971-2.647-2.646-.615.616 2.646 2.646-.834.834-1.015-1.015-.616.615 1.015 1.015-.84.842L9.5 22.5l-.616.616 2.647 2.646-.764.764a.922.922 0 0 1-.657.272.922.922 0 0 1-.656-.272l-3.981-3.981a.93.93 0 0 1 0-1.313L19.778 6.928a.922.922 0 0 1 .656-.271c.248 0 .48.096.656.271l3.982 3.982a.922.922 0 0 1 .271.656.921.921 0 0 1-.271.656zm.615-1.928-3.981-3.981a1.794 1.794 0 0 0-1.272-.527c-.46 0-.92.175-1.272.527L4.858 20.617a1.8 1.8 0 0 0 0 2.544l1.683 1.683-6.412 6.411a.435.435 0 1 0 .616.616l6.411-6.412 1.683 1.683a1.796 1.796 0 0 0 2.544 0l2.221-2.22.616-.616 11.467-11.468a1.799 1.799 0 0 0 0-2.544" fill="#241f31"/><circle cx="24.911" cy="24.943" r="5.503" fill="none" stroke="#a51d2d" stroke-width="1.75" stroke-linejoin="round"/><rect width="12.047" height="1.756" x="29.357" y="-2.005" ry="0" transform="matrix(.68388 .7296 -.63481 .77267 0 0)" fill="#a51d2d"/></svg>