<svg width="32" height="32" xmlns="http://www.w3.org/2000/svg"><circle cx="540" cy="540" r="504.447" fill="#f6f5f4" transform="translate(.03 .03) scale(.02958)"/><g transform="translate(5.39 12.58) scale(.02958)"><circle cx="135.891" cy="-177.506" r="71.46" fill="#c01c28"/><circle cx="135.891" cy="-177.506" r="54.359" fill="#a51d2d"/></g><g transform="translate(8.073 9.868) scale(.02958)"><circle cx="135.891" cy="-177.506" r="71.46" fill="#c01c28"/><circle cx="135.891" cy="-177.506" r="54.359" fill="#a51d2d"/></g><g transform="translate(9.11 13.728) scale(.02958)"><circle cx="135.891" cy="-177.506" r="71.46" fill="#c01c28"/><circle cx="135.891" cy="-177.506" r="54.359" fill="#a51d2d"/></g><g transform="translate(6.314 16.492) scale(.02958)"><circle cx="135.891" cy="-177.506" r="71.46" fill="#c01c28"/><circle cx="135.891" cy="-177.506" r="54.359" fill="#a51d2d"/></g><g transform="translate(11.794 10.794) scale(.02958)"><circle cx="135.891" cy="-177.506" r="71.46" fill="#c01c28"/><circle cx="135.891" cy="-177.506" r="54.359" fill="#a51d2d"/></g><g transform="translate(15.355 18.233) scale(.02958)"><circle cx="135.891" cy="-177.506" r="71.46" fill="#c01c28"/><circle cx="135.891" cy="-177.506" r="54.359" fill="#a51d2d"/></g><g transform="translate(12.968 21.448) scale(.02958)"><circle cx="135.891" cy="-177.506" r="71.46" fill="#c01c28"/><circle cx="135.891" cy="-177.506" r="54.359" fill="#a51d2d"/></g><g transform="translate(14.195 25.17) scale(.02958)"><circle cx="135.891" cy="-177.506" r="71.46" fill="#c01c28"/><circle cx="135.891" cy="-177.506" r="54.359" fill="#a51d2d"/></g><g transform="translate(8.427 30.393) scale(.02958)"><circle cx="135.891" cy="-177.506" r="71.46" fill="#c01c28"/><circle cx="135.891" cy="-177.506" r="54.359" fill="#a51d2d"/></g><g transform="translate(18.333 15.336) scale(.02958)"><circle cx="135.891" cy="-177.506" r="71.46" fill="#c01c28"/><circle cx="135.891" cy="-177.506" r="54.359" fill="#a51d2d"/></g><g transform="translate(19.153 19.335) scale(.02958)"><circle cx="135.891" cy="-177.506" r="71.46" fill="#c01c28"/><circle cx="135.891" cy="-177.506" r="54.359" fill="#a51d2d"/></g><g transform="translate(16.76 22.364) scale(.02958)"><circle cx="135.891" cy="-177.506" r="71.46" fill="#c01c28"/><circle cx="135.891" cy="-177.506" r="54.359" fill="#a51d2d"/></g><g transform="translate(20.47 23.056) scale(.02958)"><circle cx="135.891" cy="-177.506" r="71.46" fill="#c01c28"/><circle cx="135.891" cy="-177.506" r="54.359" fill="#a51d2d"/></g><g transform="translate(24.19 24.664) scale(.02958)"><circle cx="135.891" cy="-177.506" r="71.46" fill="#c01c28"/><circle cx="135.891" cy="-177.506" r="54.359" fill="#a51d2d"/></g><g transform="translate(9.681 18.905) scale(.02958)"><circle cx="135.891" cy="-177.506" r="71.46" fill="#c01c28"/><circle cx="135.891" cy="-177.506" r="54.359" fill="#a51d2d"/></g><g transform="translate(11.36 27.897) scale(.02958)"><circle cx="135.891" cy="-177.506" r="71.46" fill="#c01c28"/><circle cx="135.891" cy="-177.506" r="54.359" fill="#a51d2d"/></g><path d="M7.884 3.49A14.922 14.922 0 0 0 4.71 6.254a2.114 2.114 0 0 0 1.485.618 2.114 2.114 0 0 0 2.114-2.114 2.114 2.114 0 0 0-.424-1.27z" fill="#c01c28"/><path d="M7.48 3.792a14.922 14.922 0 0 0-2.417 2.103 1.608 1.608 0 0 0 1.131.472 1.608 1.608 0 0 0 1.608-1.608 1.608 1.608 0 0 0-.323-.967z" fill="#a51d2d"/><path d="M7.992 28.466a14.922 14.922 0 0 0 3.11 1.529 2.114 2.114 0 0 0 1.093-1.845 2.114 2.114 0 0 0-2.114-2.113 2.114 2.114 0 0 0-2.114 2.113 2.114 2.114 0 0 0 .025.316z" fill="#c01c28"/><path d="M8.704 28.975a14.922 14.922 0 0 0 1.554.77 1.608 1.608 0 0 0 1.43-1.595 1.608 1.608 0 0 0-1.607-1.608 1.608 1.608 0 0 0-1.608 1.608 1.608 1.608 0 0 0 .231.825z" fill="#a51d2d"/><g transform="translate(.03 .03) scale(.02958)"><path d="M419.57 1028.732a504.447 504.447 0 0 0 93.743 13.807 71.46 71.46 0 0 0 32.353-59.762 71.46 71.46 0 0 0-71.46-71.46 71.46 71.46 0 0 0-71.46 71.46 71.46 71.46 0 0 0 16.824 45.955z" fill="#c01c28"/><circle cx="474.206" cy="982.777" r="54.359" fill="#a51d2d"/></g><circle cx="540" cy="540" r="504.447" fill="none" stroke="#241f31" stroke-width="9.342" transform="translate(.03 .03) scale(.02958)"/></svg>