<svg xmlns="http://www.w3.org/2000/svg" width="1080" height="1080"><text xml:space="preserve" x="539.467" y="1030.869" fill="#241f31" stroke-linejoin="round" stroke-width="20" font-family="Cantarell" font-size="120" font-weight="700" style="-inkscape-font-specification:&quot;Cantarell Bold&quot;;text-align:center" text-anchor="middle"><tspan x="539.467" y="1030.869">Type O</tspan></text><circle cx="540" cy="540" r="504.447" fill="#f6f5f4" transform="matrix(.892 0 0 .892 58.32 -12.728)"/><g transform="matrix(.892 0 0 .892 219.97 365.818)"><circle cx="135.891" cy="-177.506" r="71.46" fill="#c01c28"/><circle cx="135.891" cy="-177.506" r="54.359" fill="#a51d2d"/></g><g transform="matrix(.892 0 0 .892 300.929 284.019)"><circle cx="135.891" cy="-177.506" r="71.46" fill="#c01c28"/><circle cx="135.891" cy="-177.506" r="54.359" fill="#a51d2d"/></g><g transform="matrix(.892 0 0 .892 332.2 400.437)"><circle cx="135.891" cy="-177.506" r="71.46" fill="#c01c28"/><circle cx="135.891" cy="-177.506" r="54.359" fill="#a51d2d"/></g><g transform="matrix(.892 0 0 .892 247.866 483.79)"><circle cx="135.891" cy="-177.506" r="71.46" fill="#c01c28"/><circle cx="135.891" cy="-177.506" r="54.359" fill="#a51d2d"/></g><g transform="matrix(.892 0 0 .892 413.16 311.93)"><circle cx="135.891" cy="-177.506" r="71.46" fill="#c01c28"/><circle cx="135.891" cy="-177.506" r="54.359" fill="#a51d2d"/></g><g transform="matrix(.892 0 0 .892 520.533 536.295)"><circle cx="135.891" cy="-177.506" r="71.46" fill="#c01c28"/><circle cx="135.891" cy="-177.506" r="54.359" fill="#a51d2d"/></g><g transform="matrix(.892 0 0 .892 448.54 633.273)"><circle cx="135.891" cy="-177.506" r="71.46" fill="#c01c28"/><circle cx="135.891" cy="-177.506" r="54.359" fill="#a51d2d"/></g><g transform="matrix(.892 0 0 .892 485.56 745.503)"><circle cx="135.891" cy="-177.506" r="71.46" fill="#c01c28"/><circle cx="135.891" cy="-177.506" r="54.359" fill="#a51d2d"/></g><g transform="matrix(.892 0 0 .892 311.608 903.038)"><circle cx="135.891" cy="-177.506" r="71.46" fill="#c01c28"/><circle cx="135.891" cy="-177.506" r="54.359" fill="#a51d2d"/></g><g transform="matrix(.892 0 0 .892 610.363 448.925)"><circle cx="135.891" cy="-177.506" r="71.46" fill="#c01c28"/><circle cx="135.891" cy="-177.506" r="54.359" fill="#a51d2d"/></g><g transform="matrix(.892 0 0 .892 635.092 569.53)"><circle cx="135.891" cy="-177.506" r="71.46" fill="#c01c28"/><circle cx="135.891" cy="-177.506" r="54.359" fill="#a51d2d"/></g><g transform="matrix(.892 0 0 .892 562.917 660.9)"><circle cx="135.891" cy="-177.506" r="71.46" fill="#c01c28"/><circle cx="135.891" cy="-177.506" r="54.359" fill="#a51d2d"/></g><g transform="matrix(.892 0 0 .892 674.81 681.761)"><circle cx="135.891" cy="-177.506" r="71.46" fill="#c01c28"/><circle cx="135.891" cy="-177.506" r="54.359" fill="#a51d2d"/></g><g transform="matrix(.892 0 0 .892 787.04 730.25)"><circle cx="135.891" cy="-177.506" r="71.46" fill="#c01c28"/><circle cx="135.891" cy="-177.506" r="54.359" fill="#a51d2d"/></g><g transform="matrix(.892 0 0 .892 349.418 556.563)"><circle cx="135.891" cy="-177.506" r="71.46" fill="#c01c28"/><circle cx="135.891" cy="-177.506" r="54.359" fill="#a51d2d"/></g><g transform="matrix(.892 0 0 .892 400.052 827.76)"><circle cx="135.891" cy="-177.506" r="71.46" fill="#c01c28"/><circle cx="135.891" cy="-177.506" r="54.359" fill="#a51d2d"/></g><path fill="#c01c28" d="M295.163 91.59a449.967 449.967 0 0 0-95.753 83.4 63.742 63.742 0 0 0 44.797 18.622 63.742 63.742 0 0 0 63.742-63.741 63.742 63.742 0 0 0-12.786-38.281z"/><path fill="#a51d2d" d="M282.954 100.729a449.967 449.967 0 0 0-72.873 63.414 48.489 48.489 0 0 0 34.126 14.216 48.489 48.489 0 0 0 48.49-48.488 48.489 48.489 0 0 0-9.743-29.142z"/><path fill="#c01c28" d="M298.416 844.78a449.967 449.967 0 0 0 93.8 46.097 63.742 63.742 0 0 0 32.937-55.62 63.742 63.742 0 0 0-63.741-63.743 63.742 63.742 0 0 0-63.744 63.743 63.742 63.742 0 0 0 .748 9.523z"/><path fill="#a51d2d" d="M319.89 860.136a449.967 449.967 0 0 0 46.872 23.227 48.489 48.489 0 0 0 43.138-48.106 48.489 48.489 0 0 0-48.488-48.488 48.489 48.489 0 0 0-48.49 48.488 48.489 48.489 0 0 0 6.968 24.879z"/><g transform="matrix(.892 0 0 .892 58.32 -12.728)"><path fill="#c01c28" d="M419.57 1028.732a504.447 504.447 0 0 0 93.743 13.807 71.46 71.46 0 0 0 32.353-59.762 71.46 71.46 0 0 0-71.46-71.46 71.46 71.46 0 0 0-71.46 71.46 71.46 71.46 0 0 0 16.824 45.955z"/><circle cx="474.206" cy="982.777" r="54.359" fill="#a51d2d"/></g><circle cx="540" cy="540" r="504.447" fill="none" stroke="#241f31" stroke-width="9.342" transform="matrix(.892 0 0 .892 58.32 -12.728)"/></svg>