<?xml version="1.0" encoding="UTF-8" standalone="no"?>
<!-- Created with Inkscape (http://www.inkscape.org/) -->

<svg
   version="1.1"
   id="svg1"
   width="1600"
   height="1600"
   viewBox="0 0 1600 1600"
   xmlns="http://www.w3.org/2000/svg"
   xmlns:svg="http://www.w3.org/2000/svg">
  <defs
     id="defs1" />
  <g
     id="g1">
    <g
       id="group-R5"
       transform="matrix(1.7810837,0,0,1.7810837,-624.86791,-624.86834)">
      <path
         id="path3"
         d="m 8038.8,7200.61 -838.19,838.19 c -147.9,147.9 -387.7,147.9 -535.6,0 L 3653.65,5027.44 c -147.9,-147.9 -147.9,-387.69 0,-535.59 l 838.2,-838.2 c 147.9,-147.9 387.69,-147.9 535.59,0 L 8038.8,6665.01 c 147.9,147.9 147.9,387.7 0,535.6"
         style="fill:#5e5c64;fill-opacity:0;fill-rule:nonzero;stroke:none"
         transform="matrix(0.13333333,0,0,-0.13333333,0,1600)" />
      <path
         id="path4"
         d="m 9065.84,7692.05 -1373.78,1373.79 302.89,302.89 1373.79,-1373.78 -302.9,-302.9"
         style="fill:#241f31;fill-opacity:1;fill-rule:nonzero;stroke:none"
         transform="matrix(0.13333333,0,0,-0.13333333,0,1600)" />
      <path
         id="path5"
         d="m 7992.71,7246.7 68.55,310.06 569.94,569.94 -504.5,504.49 -569.94,-569.94 -310.06,-68.54 746.01,-746.01"
         style="fill:#241f31;fill-opacity:1;fill-rule:nonzero;stroke:none"
         transform="matrix(0.13333333,0,0,-0.13333333,0,1600)" />
      <path
         id="path6"
         d="M 6533.37,5159.35 5027.56,3653.54 c -147.82,-147.83 -387.77,-147.83 -535.6,0 l -838.19,838.2 c -148.09,148.08 -147.82,387.76 0,535.58 L 5159.58,6533.14 6533.37,5159.35"
         style="fill:#a51d2d;fill-opacity:1;fill-rule:nonzero;stroke:none"
         transform="matrix(0.13333333,0,0,-0.13333333,0,1600)" />
      <path
         id="path7"
         d="m 7909.17,6794.65 -160.58,-160.58 -557.15,557.14 -129.62,-129.62 557.15,-557.15 -206.11,-206.11 -213.77,213.76 -129.63,-129.62 213.77,-213.76 -174.73,-174.74 -557.16,557.14 -129.62,-129.62 557.16,-557.13 -205.32,-205.32 -213.77,213.75 -129.61,-129.62 213.77,-213.75 -175.5,-175.5 -557.16,557.14 -129.63,-129.61 557.17,-557.15 -204.55,-204.55 -213.77,213.76 -129.62,-129.62 213.76,-213.76 -204.5,-204.51 -557.16,557.15 -129.62,-129.63 557.16,-557.13 -175.55,-175.53 -213.72,213.73 -129.62,-129.62 213.72,-213.73 -177.07,-177.09 -557.16,557.15 -129.62,-129.63 557.16,-557.14 -160.86,-160.86 c -36.9,-36.91 -85.98,-57.23 -138.17,-57.23 -52.19,0 -101.24,20.32 -138.18,57.23 l -838.17,838.19 c -76.18,76.19 -76.18,200.14 0,276.32 l 3011.36,3011.36 c 36.9,36.9 85.98,57.23 138.17,57.23 52.19,0 101.24,-20.33 138.15,-57.23 l 838.2,-838.18 c 36.9,-36.92 57.22,-85.98 57.22,-138.18 0,-52.18 -20.32,-101.25 -57.22,-138.15 z m 129.64,405.96 -838.19,838.19 c -73.95,73.94 -170.89,110.93 -267.8,110.93 -96.93,0 -193.86,-36.99 -267.79,-110.93 L 3653.64,5027.44 c -147.88,-147.9 -147.88,-387.69 0,-535.59 l 354.3,-354.29 -1349.82,-1349.82 c -35.81,-35.81 -35.81,-93.82 0,-129.62 17.91,-17.91 41.35,-26.86 64.81,-26.86 23.46,0 46.9,8.95 64.81,26.86 l 1349.82,1349.82 354.29,-354.29 c 73.94,-73.95 170.86,-110.93 267.79,-110.93 96.92,0 193.85,36.98 267.79,110.93 l 467.58,467.57 0.02,-0.02 129.62,129.62 -0.02,0.03 2414.18,2414.17 c 147.89,147.89 147.89,387.69 0,535.59"
         style="fill:#241f31;fill-opacity:1;fill-rule:nonzero;stroke:none"
         transform="matrix(0.13333333,0,0,-0.13333333,0,1600)" />
    </g>
  </g>
</svg>
